
        <svg width="3175.953079178885" height="2410.557184750733" xmlns="http://www.w3.org/2000/svg" xmlns:xlink="http://www.w3.org/1999/xlink" version="1.1">
            <rect fill="#fdfdfd" width="3175.953079178885" height="2410.557184750733"/>
            <g transform="scale(8.79765395894428) translate(10, 10)">
                <defs id="SvgjsDefs1117"/><g id="main_text" rel="mainfill" name="main_text" feature="main_text" xmlns:name="mainText_mainfill" groupName="main_text" fill="#454545" transform="translate(-1.1200016021728514, 94.9920036315918) scale(5.6)"><path d="M11.18 21.84 c0.38 1.02 0.56 1.42 1.96 1.52 l0 0.64 c-1.8 -0.06 -3.66 -0.06 -5.46 0 l0 -0.64 c1.34 -0.1 1.5 -0.32 1.2 -1.12 l-0.9 -2.44 l-4.08 0 l-0.86 2.52 c-0.24 0.76 0.52 0.94 1.8 1.04 l0 0.64 c-1.46 -0.06 -3.18 -0.06 -4.64 0 l0 -0.64 c1.32 -0.1 1.82 -0.42 2.14 -1.34 l3.58 -10.54 l1.36 0 z M4.12 19.1 l3.6 0 l-1.88 -5.08 z M16.9 22.1 c0 0.72 0.44 0.88 1.22 0.8 l0 0.6 c-1.74 0.4 -2.48 0.74 -2.98 0.74 c-0.34 0 -0.48 -0.16 -0.48 -0.56 l0 -11 c0 -0.7 -0.44 -0.88 -1.22 -0.76 l0 -0.64 c1.76 -0.32 2.5 -1.1 2.98 -1.1 c0.34 0 0.48 0.18 0.48 0.58 l0 11.34 z M24.4 23.42 c-0.38 0.36 -1.12 0.72 -1.94 0.72 c-1.52 0 -2.56 -0.78 -2.56 -2.76 l0 -6.66 l-0.86 0 c-0.14 0 -0.22 -0.1 -0.22 -0.24 l0 -0.28 c0 -0.14 0.08 -0.22 0.22 -0.22 c1.36 0 1.92 -0.96 2.14 -2.72 l0.98 0 l0 2.72 l2.04 0 c0.14 0 0.22 0.08 0.22 0.22 l0 0.28 c0 0.14 -0.08 0.24 -0.22 0.24 l-2.04 0 l0 7.04 c0 0.8 0.18 1.5 1 1.5 c0.54 0 1 -0.34 1.24 -0.64 l0 0.8 z M31.8 13.78 c0.98 0 1.64 0.52 1.64 1.22 s-0.5 1.1 -1.04 1.1 c-0.92 0 -0.9 -0.8 -1.76 -0.8 c-1.16 0 -1.6 1.48 -1.76 1.94 l0 5.38 c0 0.5 0.56 0.66 1.22 0.74 l0 0.64 c-1.56 -0.08 -3.12 -0.08 -4.68 0 l0 -0.64 c0.68 -0.08 1.22 -0.24 1.22 -0.74 l0 -6.36 c0 -0.7 -0.44 -0.86 -1.22 -0.76 l0 -0.64 c1.76 -0.32 2.52 -1.12 2.98 -1.12 c0.34 0 0.54 0.24 0.48 0.62 l-0.3 2 c0.72 -1.64 1.66 -2.58 3.22 -2.58 z  M43.56 21.88 c0 0.7 0.44 0.86 1.22 0.74 l0 0.62 c-1.76 0.42 -2.5 1 -2.98 1 c-0.36 0 -0.54 -0.26 -0.5 -0.66 l0.2 -1.76 c-0.44 0.66 -1.56 2.46 -3.42 2.46 c-1.6 0 -2.98 -0.76 -2.98 -3.54 l0 -5.28 c0 -0.5 -0.16 -0.7 -0.56 -0.68 l-0.6 0.02 l0 -0.68 l2.92 -0.22 c0.28 -0.02 0.5 0.12 0.5 0.44 l0 6.32 c0 1.5 0.22 2.58 1.34 2.58 c1.42 0 2.38 -1.86 2.6 -2.32 l0 -5.46 c0 -0.5 -0.16 -0.7 -0.56 -0.68 l-0.6 0.02 l0 -0.68 l2.9 -0.22 c0.32 -0.02 0.52 0.12 0.52 0.44 l0 7.54 z M48.64 22.1 c0 0.72 0.44 0.88 1.22 0.8 l0 0.6 c-1.74 0.4 -2.48 0.74 -2.98 0.74 c-0.34 0 -0.48 -0.16 -0.48 -0.56 l0 -11 c0 -0.7 -0.44 -0.88 -1.22 -0.76 l0 -0.64 c1.76 -0.32 2.5 -1.1 2.98 -1.1 c0.34 0 0.48 0.18 0.48 0.58 l0 11.34 z M61.14 13.98 l0 0.64 l-0.54 0.06 c-0.48 0.06 -0.82 0.28 -0.98 0.72 l-4.76 12.62 c-0.1 0.22 -0.16 0.36 -0.62 0.36 c-0.52 0 -0.66 -0.14 -0.56 -0.36 c0.34 -0.7 1.86 -3.8 1.86 -4 c0 -0.4 -2.44 -5.76 -3.66 -8.62 c-0.2 -0.46 -0.4 -0.7 -0.72 -0.72 l-0.6 -0.06 l0 -0.64 c1.56 0.06 3.3 0.06 4.7 0 l0 0.64 l-0.62 0.06 c-0.36 0.02 -0.64 0.28 -0.46 0.72 l2.46 5.9 l2.18 -5.9 c0.16 -0.46 -0.26 -0.68 -0.64 -0.72 l-0.6 -0.06 l0 -0.64 c1.14 0.06 2.16 0.06 3.56 0 z"/></g><g id="SvgjsG1119" rel="mainfill" name="symbol" feature="symbol" xmlns:name="symbol_mainfill" fill="#454545" transform="translate(113.00114738036791, 13.862737986899447) scale(1.1452789306640625)"><g xmlns="http://www.w3.org/2000/svg"><path d="M 98.585 11.267 h -6.857 l 4.869 -4.869 c 0.553 -0.553 0.553 -1.449 0 -2.001 c -0.553 -0.553 -1.449 -0.553 -2.001 0 l -4.869 4.869 V 2.408 c 0 -0.782 -0.634 -1.415 -1.415 -1.415 c -0.781 0 -1.415 0.633 -1.415 1.415 v 9.688 l -2.248 2.248 V 7.603 c 0 -0.781 -0.633 -1.415 -1.415 -1.415 s -1.415 0.633 -1.415 1.415 v 9.571 l -2.307 2.307 V 12.74 c 0 -0.781 -0.633 -1.415 -1.415 -1.415 s -1.415 0.633 -1.415 1.415 v 9.571 L 60.376 38.616 c -2.117 -1.074 -4.541 -1.516 -6.92 -1.245 c -2.715 0.309 -5.275 1.54 -7.211 3.469 l -0.541 0.541 c -0.141 0.141 -0.306 0.163 -0.392 0.163 s -0.251 -0.021 -0.392 -0.163 l -0.573 -0.573 c -2.292 -2.283 -5.345 -3.539 -8.598 -3.539 c -3.253 0 -6.306 1.258 -8.598 3.539 c -2.294 2.285 -3.557 5.328 -3.559 8.569 c -0.002 3.246 1.261 6.295 3.558 8.588 l 12.39 12.36 c 0.276 0.275 0.638 0.414 1 0.414 c 0.363 0 0.725 -0.138 1.002 -0.416 c 0.552 -0.554 0.551 -1.45 -0.002 -2.001 L 29.15 55.962 c -1.759 -1.756 -2.729 -4.094 -2.727 -6.583 c 0.001 -2.484 0.969 -4.815 2.726 -6.565 c 1.757 -1.751 4.101 -2.715 6.6 -2.715 c 2.499 0 4.843 0.964 6.598 2.713 l 0.571 0.571 c 0.639 0.639 1.489 0.991 2.394 0.991 l 0 0 c 0.904 0 1.753 -0.352 2.393 -0.991 l 0.539 -0.539 c 1.505 -1.5 3.418 -2.419 5.531 -2.659 c 1.514 -0.173 3.052 0.03 4.46 0.573 L 44.298 54.697 c -0.553 0.553 -0.553 1.449 0 2.001 c 0.276 0.276 0.638 0.415 1.001 0.415 s 0.724 -0.138 1.001 -0.415 l 32.266 -32.266 h 9.803 c 0.781 0 1.415 -0.633 1.415 -1.415 c 0 -0.782 -0.633 -1.415 -1.415 -1.415 h -6.974 l 2.306 -2.306 h 9.803 c 0.781 0 1.415 -0.633 1.415 -1.415 s -0.633 -1.415 -1.415 -1.415 h -6.974 l 2.365 -2.365 h 9.688 c 0.781 0 1.415 -0.633 1.415 -1.415 S 99.366 11.267 98.585 11.267 Z"/><path d="M 45.298 22.33 c 6.576 0 12.871 2.012 18.205 5.818 c 0.636 0.454 1.52 0.307 1.974 -0.33 c 0.454 -0.636 0.306 -1.52 -0.33 -1.974 c -5.816 -4.151 -12.68 -6.344 -19.85 -6.344 c -4.617 0 -9.098 0.905 -13.316 2.689 c -4.073 1.723 -7.732 4.189 -10.874 7.33 s -5.607 6.799 -7.33 10.874 c -1.784 4.219 -2.689 8.699 -2.689 13.316 c 0 14.5 9.143 27.421 22.782 32.253 c 0.225 0.137 0.479 0.207 0.734 0.207 c 0.362 0 0.722 -0.137 0.999 -0.413 c 1.405 -1.4 3.607 -3.596 6.192 -6.173 l 7.671 -7.652 c 5.545 -5.531 11.278 -11.25 13.975 -13.937 c 3.599 -3.585 4.576 -9.09 2.431 -13.697 c -0.33 -0.709 -1.172 -1.015 -1.88 -0.685 c -0.709 0.33 -1.015 1.171 -0.685 1.88 c 1.645 3.53 0.896 7.749 -1.862 10.496 c -2.698 2.688 -8.431 8.408 -13.976 13.939 l -7.671 7.652 c -2.21 2.204 -4.139 4.128 -5.531 5.514 C 22.06 78.513 13.919 66.813 13.919 53.708 c 0 -8.381 3.264 -16.262 9.191 -22.188 S 36.917 22.33 45.298 22.33 Z"/><path d="M 82.942 28.504 c -0.435 -0.649 -1.314 -0.822 -1.963 -0.387 c -0.649 0.435 -0.822 1.314 -0.387 1.963 c 1.186 1.767 2.246 3.638 3.15 5.559 c 2.67 5.671 4.024 11.75 4.024 18.069 c 0 5.734 -1.122 11.295 -3.336 16.53 c -2.139 5.057 -5.201 9.599 -9.102 13.5 s -8.442 6.963 -13.5 9.102 c -5.235 2.214 -10.796 3.336 -16.53 3.336 c -3.404 0 -6.774 -0.402 -10.047 -1.196 l 7.224 -7.179 c 0.936 0.076 1.883 0.115 2.824 0.115 c 4.617 0 9.098 -0.905 13.316 -2.689 c 4.073 -1.723 7.732 -4.189 10.874 -7.33 s 5.607 -6.799 7.33 -10.874 c 1.784 -4.219 2.689 -8.699 2.689 -13.316 c 0 -6.311 -1.733 -12.477 -5.01 -17.834 c -0.408 -0.667 -1.279 -0.876 -1.946 -0.469 c -0.667 0.408 -0.876 1.279 -0.469 1.946 c 3.006 4.911 4.594 10.567 4.594 16.356 c 0 8.381 -3.264 16.262 -9.191 22.188 c -5.927 5.927 -13.806 9.191 -22.188 9.191 c -1.071 0 -2.151 -0.055 -3.21 -0.162 c -0.421 -0.043 -0.84 0.106 -1.141 0.404 l -9.427 9.368 c -0.353 0.351 -0.496 0.862 -0.375 1.345 c 0.121 0.483 0.485 0.867 0.962 1.012 c 4.261 1.297 8.699 1.953 13.193 1.953 c 6.114 0 12.047 -1.198 17.633 -3.56 c 5.394 -2.282 10.239 -5.548 14.398 -9.707 c 4.16 -4.16 7.426 -9.004 9.707 -14.398 c 2.362 -5.586 3.56 -11.518 3.56 -17.633 c 0 -6.738 -1.445 -13.223 -4.294 -19.274 C 85.337 32.385 84.207 30.39 82.942 28.504 Z"/><path d="M 26.78 91.938 c -7.071 -3.431 -13.051 -8.754 -17.293 -15.39 C 5.132 69.733 2.83 61.836 2.83 53.709 c 0 -5.734 1.122 -11.295 3.336 -16.53 c 2.139 -5.057 5.202 -9.599 9.102 -13.499 c 3.901 -3.901 8.443 -6.963 13.5 -9.102 c 5.235 -2.214 10.796 -3.336 16.53 -3.336 c 8.215 0 16.184 2.348 23.047 6.791 c 0.97 0.628 1.928 1.306 2.845 2.012 c 0.619 0.477 1.507 0.362 1.985 -0.258 c 0.477 -0.619 0.362 -1.507 -0.258 -1.985 c -0.979 -0.754 -1.999 -1.476 -3.035 -2.146 c -7.323 -4.74 -15.823 -7.246 -24.585 -7.246 c -6.114 0 -12.047 1.198 -17.633 3.56 c -5.394 2.282 -10.239 5.548 -14.398 9.707 s -7.426 9.004 -9.707 14.398 c -2.362 5.586 -3.56 11.518 -3.56 17.633 c 0 8.668 2.456 17.093 7.103 24.363 c 4.523 7.077 10.9 12.753 18.441 16.412 c 0.199 0.097 0.41 0.142 0.617 0.142 c 0.525 0 1.029 -0.293 1.274 -0.798 C 27.777 93.126 27.483 92.279 26.78 91.938 Z"/></g></g>
            </g>
        </svg>
    